# xmcd
#
# Track frame offsets: 
#        150
#        12725
#        25982
#        39297
#        53904
#        66707
#        78324
#        90059
#        100913
#        112953
#        127051
#        139931
#        149704
#        161819
#        175851
#        186554
#        199121
#        210632
#        222169
#        233187
#
# Disc length: 3280 seconds
#
# Revision: 1
# Processed by: cddbd v1.5.2PL0 Copyright (c) Steve Scherf et al.
# Submitted via: ExactAudioCopy v1.1
#
DISCID=2d0cce14
DTITLE=Hownlin' Wolf - Howlin' Wolf - The Absolute Essential Collectio
DTITLE=n  cd2
DYEAR=2015
DGENRE=Blues
TTITLE0=Spoonful
TTITLE1=Baby How Long
TTITLE2=Evil
TTITLE3=I'll Be Around
TTITLE4=Forty Four
TTITLE5=Who Will Be Next
TTITLE6=I Have A Little Girl
TTITLE7=Come To Me Baby
TTITLE8=Don't Mess With My Baby
TTITLE9=You Can't Be Beat
TTITLE10=I Asked For Water (She Gave Me Gasoline)
TTITLE11=So Glad
TTITLE12=Goin' Back Home
TTITLE13=My Life
TTITLE14=Somebody In My Home
TTITLE15=Nature
TTITLE16=Poor Boy
TTITLE17=Sittin' On Top Of The World
TTITLE18=I Didn't Know
TTITLE19=Moaning For My Baby
EXTD=
EXTT0=
EXTT1=
EXTT2=
EXTT3=
EXTT4=
EXTT5=
EXTT6=
EXTT7=
EXTT8=
EXTT9=
EXTT10=
EXTT11=
EXTT12=
EXTT13=
EXTT14=
EXTT15=
EXTT16=
EXTT17=
EXTT18=
EXTT19=
PLAYORDER=
